<?xml version="1.0" encoding="UTF-8" standalone="no"?>
<!-- Created with Inkscape (http://www.inkscape.org/) -->

<svg
   xmlns:dc="http://purl.org/dc/elements/1.1/"
   xmlns:cc="http://creativecommons.org/ns#"
   xmlns:rdf="http://www.w3.org/1999/02/22-rdf-syntax-ns#"
   xmlns:svg="http://www.w3.org/2000/svg"
   xmlns="http://www.w3.org/2000/svg"
   xmlns:sodipodi="http://sodipodi.sourceforge.net/DTD/sodipodi-0.dtd"
   xmlns:inkscape="http://www.inkscape.org/namespaces/inkscape"
   width="499.24243"
   height="174.63379"
   viewBox="0 0 499.24244 174.63379"
   id="svg2"
   version="1.1"
   inkscape:version="0.91 r13725"
   sodipodi:docname="logo.svg"
   inkscape:export-filename="C:\Users\leema\Desktop\logo.png"
   inkscape:export-xdpi="90"
   inkscape:export-ydpi="90">
  <defs
     id="defs4" />
  <sodipodi:namedview
     id="base"
     pagecolor="#000000"
     bordercolor="#666666"
     borderopacity="1.0"
     inkscape:pageopacity="0"
     inkscape:pageshadow="2"
     inkscape:zoom="5.6"
     inkscape:cx="363.82137"
     inkscape:cy="49.115953"
     inkscape:document-units="px"
     inkscape:current-layer="layer1"
     showgrid="false"
     inkscape:window-width="3440"
     inkscape:window-height="1387"
     inkscape:window-x="1912"
     inkscape:window-y="-8"
     inkscape:window-maximized="1"
     units="px"
     fit-margin-top="0"
     fit-margin-left="0"
     fit-margin-right="0"
     fit-margin-bottom="0" />
  <metadata
     id="metadata7">
    <rdf:RDF>
      <cc:Work
         rdf:about="">
        <dc:format>image/svg+xml</dc:format>
        <dc:type
           rdf:resource="http://purl.org/dc/dcmitype/StillImage" />
        <dc:title></dc:title>
      </cc:Work>
    </rdf:RDF>
  </metadata>
  <g
     inkscape:label="Layer 1"
     inkscape:groupmode="layer"
     id="layer1"
     transform="translate(-99.166383,-603.3121)">
    <text
       xml:space="preserve"
       style="font-style:normal;font-weight:normal;font-size:40px;line-height:125%;font-family:sans-serif;letter-spacing:0px;word-spacing:0px;fill:#000000;fill-opacity:1;stroke:none;stroke-width:1px;stroke-linecap:butt;stroke-linejoin:miter;stroke-opacity:1"
       x="185.71429"
       y="332.36221"
       id="text3336"
       sodipodi:linespacing="125%"><tspan
         sodipodi:role="line"
         id="tspan3338"
         x="185.71429"
         y="332.36221" /></text>
    <g
       style="font-style:normal;font-weight:normal;font-size:184.79766846px;line-height:125%;font-family:sans-serif;letter-spacing:0px;word-spacing:0px;fill:#ffffff;fill-opacity:1;stroke:none;stroke-width:1px;stroke-linecap:butt;stroke-linejoin:miter;stroke-opacity:1"
       id="text3340">
      <path
         d="m 160.70401,777.9459 q -15.52301,0 -23.46931,-8.50069 -7.9463,-8.68549 -7.9463,-23.09971 0,-8.1311 2.40237,-19.77335 l 11.45746,-52.85214 q 0.36959,-1.47838 1.66318,-8.13109 1.47838,-6.65272 1.47838,-14.41422 0,-4.43514 -1.84798,-6.65272 -1.66318,-2.21757 -4.61994,-2.21757 -5.54393,0 -12.93584,5.35913 -7.3919,5.17434 -15.523,16.0774 -2.58717,3.51116 -5.72873,3.51116 -2.58717,0 -4.61994,-2.40237 -1.847977,-2.58717 -1.847977,-5.72873 0,-5.72873 5.174337,-12.93584 18.84936,-25.87167 44.16664,-25.87167 11.27266,0 17.55578,6.83751 6.46792,6.83752 6.46792,20.14295 0,9.42468 -1.29359,17.37098 -1.29358,7.9463 -4.43514,21.62133 l -7.5767,33.81797 q -0.3696,1.66318 -1.29359,5.91353 -0.92399,4.25034 -1.47838,8.13109 -0.55439,3.69596 -0.55439,7.39191 0,5.91352 3.32636,9.42468 3.32635,3.51116 9.42468,3.51116 11.08786,0 22.36051,-11.82705 11.45746,-11.82706 21.06694,-38.06832 9.79428,-26.42607 15.15341,-67.45115 1.29358,-9.42468 3.69595,-13.12064 2.58717,-3.69595 9.79428,-3.69595 6.46792,0 9.60948,3.88075 3.14156,3.88075 3.14156,12.56624 0,4.98954 -1.29359,13.12064 -1.10878,8.13109 -3.51115,22.73011 -4.98954,28.27404 -7.9463,51.92814 -1.47838,10.71827 -1.47838,15.8926 0,7.57671 3.32635,11.64226 3.51116,3.88075 9.23989,3.88075 6.09832,0 11.82705,-4.06555 5.91352,-4.06555 13.85982,-13.49023 2.21758,-2.58717 4.98954,-2.58717 2.40237,0 3.69595,2.21757 1.47839,2.21758 1.47839,6.09833 0,7.20711 -3.51116,11.45745 -9.60948,11.64226 -19.03416,17.00139 -9.42468,5.35913 -19.77335,5.35913 -15.33821,0 -23.4693,-7.7615 -8.1311,-7.9463 -8.1311,-20.51254 0,-7.02231 2.95676,-27.35006 -9.23988,27.16526 -23.4693,41.39468 -14.04463,14.22942 -32.52439,14.22942 z"
         style="font-style:normal;font-variant:normal;font-weight:normal;font-stretch:normal;font-family:Pacifico;-inkscape-font-specification:Pacifico;fill:#ffffff"
         id="path3366" />
      <path
         d="m 355.22665,735.81203 q 2.40237,0 3.69595,2.21757 1.47838,2.21758 1.47838,6.09833 0,7.3919 -3.51115,11.45745 -7.9463,9.79428 -17.37098,16.0774 -9.42468,6.28312 -21.62133,6.28312 -37.69873,0 -37.69873,-53.03693 0,-8.1311 0.5544,-16.44699 l -7.20711,0 q -5.54393,0 -7.57671,-2.03278 -1.84797,-2.03277 -1.84797,-6.46792 0,-10.34867 8.31589,-10.34867 l 10.53347,0 q 3.14156,-20.32774 9.60948,-37.14433 6.46792,-16.81658 15.523,-26.79566 9.23989,-9.97907 19.77335,-9.97907 7.76151,0 12.19665,6.83751 4.43514,6.83751 4.43514,17.18618 0,28.64364 -24.02369,49.89537 l 20.69734,0 q 2.95676,0 4.25034,1.29359 1.29359,1.29358 1.29359,4.80474 0,12.75104 -20.88214,12.75104 l -22.54532,0 q -0.36959,9.23988 -0.36959,14.41421 0,19.21896 4.43514,26.98046 4.61994,7.76151 14.41422,7.76151 7.9463,0 14.04462,-4.80474 6.09833,-4.80474 14.41422,-14.41422 2.21757,-2.58717 4.98954,-2.58717 z M 322.88706,633.43412 q -2.77197,0 -6.28312,7.02231 -3.32636,6.83752 -6.46792,19.21896 -2.95677,12.19665 -4.98954,27.16526 10.90306,-9.42468 16.26219,-21.06693 5.54393,-11.82706 5.54393,-21.43653 0,-10.90307 -4.06554,-10.90307 z"
         style="font-style:normal;font-variant:normal;font-weight:normal;font-stretch:normal;font-family:Pacifico;-inkscape-font-specification:Pacifico;fill:#ffffff"
         id="path3368" />
      <path
         d="m 369.5629,678.70955 q -7.7615,0 -11.64225,-3.51115 -3.88076,-3.69596 -3.88076,-10.16388 0,-6.46791 4.98954,-10.71826 5.17434,-4.43514 12.75104,-4.43514 6.83751,0 11.08786,3.32635 4.25035,3.32636 4.25035,9.42468 0,7.39191 -4.80474,11.82706 -4.80474,4.25034 -12.75104,4.25034 z m -1.47838,99.23635 q -12.01185,0 -17.55578,-8.50069 -5.35913,-8.5007 -5.35913,-22.54532 0,-8.31589 2.03277,-21.25173 2.21757,-13.12063 5.54393,-24.39329 1.66318,-5.91353 4.43514,-8.1311 2.77197,-2.21757 8.87029,-2.21757 9.42468,0 9.42468,6.28312 0,4.61994 -3.51115,21.43653 -4.43515,20.32774 -4.43515,27.53485 0,5.54393 1.47839,8.50069 1.47838,2.95677 4.98953,2.95677 3.32636,0 8.3159,-4.61995 4.98953,-4.61994 13.30543,-14.59901 2.21757,-2.58717 4.98954,-2.58717 2.40237,0 3.69595,2.21757 1.47838,2.21758 1.47838,6.09833 0,7.3919 -3.51115,11.45745 -18.29497,22.36052 -34.18757,22.36052 z"
         style="font-style:normal;font-variant:normal;font-weight:normal;font-stretch:normal;font-family:Pacifico;-inkscape-font-specification:Pacifico;fill:#ffffff"
         id="path3370" />
      <path
         d="m 460.87029,735.81203 q 2.40237,0 3.69595,2.21757 1.47838,2.21758 1.47838,6.09833 0,7.3919 -3.51115,11.45745 -7.9463,9.79428 -17.37098,16.0774 -9.23989,6.28312 -21.06694,6.28312 -16.26219,0 -24.20849,-14.78381 -7.7615,-14.78382 -7.7615,-38.25312 0,-22.54532 5.72872,-51.37375 5.91353,-28.82844 17.18619,-49.52578 11.45745,-20.69734 27.16526,-20.69734 8.87028,0 13.85982,8.3159 5.17433,8.1311 5.17433,23.4693 0,21.99092 -12.19664,51.00416 -12.19665,29.01323 -33.07878,57.47207 1.29358,7.57671 4.25034,10.90307 2.95677,3.14156 7.7615,3.14156 7.57671,0 13.30544,-4.25035 5.72872,-4.43514 14.59901,-14.96861 2.21757,-2.58717 4.98954,-2.58717 z M 438.14018,621.60707 q -4.25035,0 -9.60948,15.33821 -5.35913,15.33821 -9.42468,38.06832 -4.06555,22.73011 -4.43515,43.61225 13.12064,-21.62133 20.88214,-43.24266 7.7615,-21.80612 7.7615,-39.73149 0,-14.04463 -5.17433,-14.04463 z"
         style="font-style:normal;font-variant:normal;font-weight:normal;font-stretch:normal;font-family:Pacifico;-inkscape-font-specification:Pacifico;fill:#ffffff"
         id="path3372" />
      <path
         d="m 475.31626,678.70955 c -5.17434,0 -9.05509,-1.17038 -11.64226,-3.51115 -2.58717,-2.46397 -3.88075,-5.85193 -3.88075,-10.16388 0,-4.31194 1.66318,-7.88469 4.98954,-10.71826 3.44955,-2.95676 7.6999,-4.43514 12.75104,-4.43514 4.55834,0 8.25429,1.10878 11.08786,3.32635 2.83356,2.21757 4.25034,5.35913 4.25034,9.42468 0,4.92794 -1.60158,8.87029 -4.80474,11.82706 -3.20316,2.83356 -7.4535,4.25034 -12.75103,4.25034 z m -1.47839,99.23635 c -8.00789,0 -13.85982,-2.83356 -17.55577,-8.50069 -3.57276,-5.66713 -5.35914,-13.18224 -5.35914,-22.54532 0,-5.54393 0.67759,-12.62784 2.03278,-21.25173 1.47838,-8.74709 3.32636,-16.87818 5.54393,-24.39329 1.10879,-3.94235 2.58717,-6.65272 4.43514,-8.1311 1.84798,-1.47838 4.80474,-2.21757 8.87029,-2.21757 6.28312,0 9.42468,2.09437 9.42468,6.28312 0,3.07996 -1.17039,10.22547 -3.51116,21.43653 -2.95676,13.55183 -4.43514,22.73011 -4.43514,27.53485 0,3.69595 0.49279,6.52952 1.47838,8.50069 0.98559,1.97118 2.64877,2.95677 4.98954,2.95677 2.21757,0 4.85108,-1.6966 8.31589,-4.61995 3.86207,-3.25853 7.76151,-7.9463 13.30544,-14.59901 1.47838,-1.72478 3.14156,-2.58717 4.98953,-2.58717 1.60158,0 2.83357,0.73919 3.69596,2.21757 0.98559,1.47839 1.47838,3.51116 1.47838,6.09833 0,4.92793 -1.17039,8.74708 -3.51116,11.45745 -12.19665,14.90701 -23.5925,22.36052 -34.18757,22.36052 z"
         style="font-style:normal;font-variant:normal;font-weight:normal;font-stretch:normal;font-family:Pacifico;-inkscape-font-specification:Pacifico;fill:#ffffff"
         id="path3374"
         inkscape:connector-curvature="0"
         sodipodi:nodetypes="scscssscsscsccssscsssscscscs" />
      <path
         d="m 593.23448,741.35596 q 2.40237,0 3.69595,2.21757 1.47839,2.21758 1.47839,6.09833 0,6.65271 -3.14157,11.45745 -10.90306,16.81659 -31.046,16.81659 -8.68549,0 -15.52301,-3.32636 -6.65271,-3.51115 -10.90306,-9.97907 -10.71827,13.12063 -24.94769,13.12063 -10.16387,0 -16.07739,-5.91352 -5.91353,-5.91353 -5.91353,-15.7078 0,-9.23989 4.25035,-14.96862 4.25034,-5.72872 12.01185,-5.72872 6.65271,0 6.65271,4.98953 0,1.47838 -0.36959,5.17434 l -0.5544,7.02231 q 0,5.54393 4.80474,5.54393 3.51116,0 6.65272,-4.06555 3.32636,-4.25035 5.35913,-11.45745 2.21757,-7.20711 2.21757,-15.8926 0,-6.65272 -1.66317,-11.08786 -1.66318,-4.61995 -4.06555,-4.61995 -2.03278,0 -2.95677,1.10879 -0.92398,0.92399 -1.84797,3.32636 -1.10879,2.95676 -2.95677,4.80474 -1.84797,1.66318 -6.46791,1.66318 -4.06555,0 -6.46792,-2.77197 -2.40237,-2.95676 -2.40237,-8.87029 0,-9.42468 5.72873,-14.78381 5.72872,-5.35913 14.78381,-5.35913 7.7615,0 14.04462,3.88075 6.28312,3.69595 9.60948,10.90306 5.54393,-7.39191 12.38144,-11.08786 7.02232,-3.69595 13.67503,-3.69595 7.20711,0 10.90306,3.32636 3.88076,3.32635 3.88076,10.71826 0,8.3159 -3.14156,13.12063 -3.14157,4.61995 -7.57671,4.61995 -4.06555,0 -5.54393,-1.66318 -1.47838,-1.66318 -2.21757,-4.80474 -0.3696,-2.21757 -1.10879,-3.32636 -0.73919,-1.10879 -2.58716,-1.10879 -2.21758,0 -4.80474,4.25035 -2.40237,4.06555 -4.25035,10.90306 -1.66318,6.83752 -1.66318,14.22942 0,8.3159 3.69595,13.30544 3.88075,4.98953 9.23989,4.98953 10.16387,0 20.14294,-14.59901 1.84798,-2.77197 4.98954,-2.77197 z"
         style="font-style:normal;font-variant:normal;font-weight:normal;font-stretch:normal;font-family:Pacifico;-inkscape-font-specification:Pacifico;fill:#ffffff"
         id="path3376" />
    </g>
    <text
       xml:space="preserve"
       style="font-style:normal;font-weight:normal;font-size:40px;line-height:125%;font-family:sans-serif;letter-spacing:0px;word-spacing:0px;fill:#000000;fill-opacity:1;stroke:none;stroke-width:1px;stroke-linecap:butt;stroke-linejoin:miter;stroke-opacity:1"
       x="171.25"
       y="316.91577"
       id="text3344"
       sodipodi:linespacing="125%"><tspan
         sodipodi:role="line"
         id="tspan3346"
         x="171.25"
         y="316.91577" /></text>
  </g>
</svg>
